<svg width="54" height="56" viewBox="0 0 54 56" fill="none" xmlns="http://www.w3.org/2000/svg">
<circle cx="26.9997" cy="29.0004" r="26.9997" fill="#C6CBF0"/>
<path d="M40.0569 5.65219C40.0569 5.65219 39.3115 3.27596 40.0569 2.11125C41.0347 0.583429 42.4913 -1.20838 44.5937 1.11536C46.0428 2.71702 44.8635 5.37008 43.9906 6.86425C44.9808 5.47014 46.7987 3.35995 48.2453 4.21368C49.6137 5.02125 50.2012 6.43993 49.7945 7.97594C49.2417 10.0638 44.5937 9.85707 44.5937 9.85707L40.0569 5.65219Z" fill="#C6CBF0"/>
<path d="M15.2702 19.2635C15.2702 19.2635 17.6286 16.0838 20.8278 20.2434" stroke="black"/>
<path d="M27.7743 19.2876C27.7743 19.2876 30.1328 16.1079 33.332 20.2676" stroke="black"/>
</svg>
