<svg width="440" height="600" viewBox="0 0 440 600" fill="none" xmlns="http://www.w3.org/2000/svg">
<path d="M152.982 127.756C152.982 127.756 127.975 111.163 126.119 94.6022C123.683 72.8791 123.728 45.0519 161.042 50.8593C186.761 54.8621 195.846 88.6498 199.009 109.262C197.704 88.6965 198.716 55.1477 218.737 52.1663C237.676 49.3462 253.939 58.1729 261.784 75.6398C272.448 99.3822 227.36 132.708 227.36 132.708L152.982 127.756Z" fill="#EB7462"/>
<path d="M97.1396 136.367C42.6972 159.921 0.25 241.527 0.25 241.527V599.5H439.25V264.276C439.25 264.276 393.116 184.904 331.872 158.258C257.453 125.879 171.644 104.134 97.1396 136.367Z" fill="#EB7462"/>
<path d="M97 267C128 290.5 143.5 288 169.5 267" stroke="black" stroke-width="3"/>
<path d="M205 267C236 290.5 251.5 288 277.5 267" stroke="black" stroke-width="3"/>
<path d="M156 338C187 361.5 202.5 359 228.5 338" stroke="black" stroke-width="3"/>
</svg>
