<svg width="273" height="273" viewBox="0 0 273 273" fill="none" xmlns="http://www.w3.org/2000/svg">
<circle cx="136.5" cy="136.5" r="136.5" fill="#CCCCCC"/>
<circle cx="136" cy="137.04" r="122" fill="#EB7462"/>
<path d="M195 31.5398C195 31.5398 191.632 20.8027 195 15.5398C199.418 8.63626 206 0.539847 215.5 11.0398C222.048 18.277 216.719 30.2651 212.775 37.0166C217.249 30.7172 225.463 21.1822 232 25.0398C238.183 28.6888 240.838 35.0993 239 42.0398C236.502 51.474 215.5 50.5398 215.5 50.5398L195 31.5398Z" fill="#EB7462"/>
<path d="M85.7075 104.049C85.7075 104.049 99.2096 92.315 109.276 113.784" stroke="black" stroke-width="4"/>
<path d="M140.857 116.331C140.857 116.331 154.359 104.597 164.425 126.065" stroke="black" stroke-width="4"/>
</svg>
