<svg width="34" height="41" viewBox="0 0 34 41" fill="none" xmlns="http://www.w3.org/2000/svg">
<path d="M16.875 0.0125837C12.375 0.51244 9.375 7.01258 9.375 7.01258C9.375 7.01258 6.37406 5.51392 4.875 5.51258C3.37594 5.51125 0.874061 5.51258 0.374998 9.01258C-0.124064 12.5126 -0.125934 18.5139 0.374998 26.5126C0.875931 34.5112 9.13461 40.9636 17.875 40.5126C26.8388 40.0501 34.375 34.0112 33.875 24.0126C33.375 14.0139 21.375 -0.487273 16.875 0.0125837Z" fill="white"/>
<path d="M17.374 3.00702C13.874 3.50722 9.87402 10.507 9.87402 10.507L4.87402 8.00702C4.87402 8.00702 3.72982 8.51399 3.37402 10.507C3.01823 12.5 1.87417 22.5 3.37402 27.507C4.87388 32.514 9.87402 37.3412 14.374 37.507C18.874 37.6728 17.7624 37.9001 19.874 37.507C25.725 36.418 29.9226 33.2788 31.374 27.507C31.9931 25.0453 30.9999 20.8002 30 18.5C29.0001 16.1997 20.874 2.50681 17.374 3.00702Z" fill="#FF9600"/>
<path d="M23.3744 26.5139C22.8744 22.5139 16.8744 17.5139 16.8744 17.5139C16.8744 17.5139 11.8746 23.0139 11.3744 26.5139C10.8742 30.0139 14.4319 32.8018 17.8744 32.5139C21.042 32.249 23.8744 30.5139 23.3744 26.5139Z" fill="#FFC800"/>
</svg>
