<svg width="33" height="38" viewBox="0 0 33 38" fill="none" xmlns="http://www.w3.org/2000/svg">
<path d="M0.446444 26.5C-0.55926 20.0005 0.447989 12.0005 0.446444 10C0.4449 7.99951 9.94645 3.68209e-05 15.9464 0C21.9464 -3.68206e-05 32.4464 7.99955 32.4464 10C32.4464 12.0005 33.4464 19.5 32.4464 26.5C31.4464 33.5 18.9462 37.9994 15.9464 38C12.9467 38.0006 1.45215 32.9995 0.446444 26.5Z" fill="white"/>
<path d="M2.33221 25.3153C1.47605 19.842 2.33352 13.1052 2.33221 11.4206C2.33089 9.73594 10.4196 2.99954 15.5274 2.99951C20.6351 2.99948 29.5738 9.73597 29.5738 11.4206C29.5738 13.1052 30.4251 19.4206 29.5738 25.3153C28.7225 31.21 18.081 34.999 15.5274 34.9995C12.9737 35 3.18836 30.7886 2.33221 25.3153Z" fill="#1CB0F6"/>
<path d="M14.4521 5.49951L5.95215 10.9995V11.9995L9.95215 14.9995H11.4521L15.9521 11.9995V6.49951L14.4521 5.49951Z" fill="white"/>
</svg>
