<svg width="37" height="39" viewBox="0 0 37 39" fill="none" xmlns="http://www.w3.org/2000/svg">
<circle cx="18.5" cy="19.9819" r="18.5" fill="#EB7462"/>
<path d="M27.4467 3.98393C27.4467 3.98393 26.936 2.35575 27.4467 1.5577C28.1167 0.510845 29.1148 -0.71689 30.5553 0.875319C31.5483 1.97277 30.7402 3.79062 30.1421 4.81442C30.8206 3.85918 32.0662 2.4133 33.0574 2.99827C33.995 3.55161 34.3975 4.52368 34.1189 5.57614C33.7401 7.00673 30.5553 6.86507 30.5553 6.86507L27.4467 3.98393Z" fill="#EB7462"/>
<path d="M10.4631 13.3102C10.4631 13.3102 12.0791 11.1315 14.2712 13.9817" stroke="black"/>
<path d="M19.0308 13.3268C19.0308 13.3268 20.6468 11.1481 22.8388 13.9983" stroke="black"/>
</svg>
