<svg width="54" height="56" viewBox="0 0 54 56" fill="none" xmlns="http://www.w3.org/2000/svg">
<circle cx="26.9997" cy="29.0004" r="26.9997" fill="#C7D4C5"/>
<path d="M40.0569 5.65219C40.0569 5.65219 39.3115 3.27596 40.0569 2.11125C41.0347 0.583429 42.4913 -1.20838 44.5937 1.11536C46.0428 2.71702 44.8635 5.37008 43.9906 6.86425C44.9808 5.47014 46.7987 3.35995 48.2453 4.21368C49.6137 5.02125 50.2012 6.43993 49.7945 7.97594C49.2417 10.0638 44.5937 9.85707 44.5937 9.85707L40.0569 5.65219Z" fill="#C7D4C5"/>
<path d="M32.7298 18.7365C32.7298 18.7365 30.3714 21.9162 27.1722 17.7566" stroke="black"/>
<path d="M20.2257 18.7124C20.2257 18.7124 17.8672 21.8921 14.668 17.7324" stroke="black"/>
</svg>
