<svg width="199" height="199" viewBox="0 0 199 199" fill="none" xmlns="http://www.w3.org/2000/svg">
<circle cx="99.5" cy="99.5" r="99.5" fill="#CCCCCC"/>
<circle cx="99.5" cy="100.28" r="91.5" fill="#EB7462"/>
<path d="M143.75 21.1549C143.75 21.1549 141.224 13.102 143.75 9.15487C147.064 3.9772 152 -2.09511 159.125 5.77987C164.036 11.2078 160.039 20.1988 157.081 25.2624C160.437 20.5379 166.597 13.3866 171.5 16.2799C176.137 19.0166 178.128 23.8244 176.75 29.0299C174.877 36.1055 159.125 35.4049 159.125 35.4049L143.75 21.1549Z" fill="#EB7462"/>
<ellipse cx="80" cy="67.5" rx="13" ry="15.5" fill="black"/>
<ellipse cx="118" cy="67.5" rx="13" ry="15.5" fill="black"/>
<path d="M84.8771 59.8155C84.8969 59.699 85.1031 59.699 85.1229 59.8155C85.3631 61.2345 85.9782 64.1424 87.1607 65.5692C88.301 66.945 90.4829 67.5639 91.8327 67.8255C91.953 67.8488 91.953 68.1512 91.8327 68.1745C90.4829 68.4361 88.301 69.055 87.1607 70.4308C85.9782 71.8576 85.3631 74.7655 85.1229 76.1845C85.1031 76.301 84.8969 76.301 84.8771 76.1845C84.6369 74.7655 84.0218 71.8576 82.8393 70.4308C81.699 69.055 79.5171 68.4361 78.1673 68.1745C78.047 68.1512 78.047 67.8488 78.1673 67.8255C79.5171 67.5639 81.699 66.945 82.8393 65.5692C84.0218 64.1424 84.6369 61.2345 84.8771 59.8155Z" fill="white"/>
<path d="M122.877 59.8155C122.897 59.699 123.103 59.699 123.123 59.8155C123.363 61.2345 123.978 64.1424 125.161 65.5692C126.301 66.945 128.483 67.5639 129.833 67.8255C129.953 67.8488 129.953 68.1512 129.833 68.1745C128.483 68.4361 126.301 69.055 125.161 70.4308C123.978 71.8576 123.363 74.7655 123.123 76.1845C123.103 76.301 122.897 76.301 122.877 76.1845C122.637 74.7655 122.022 71.8576 120.839 70.4308C119.699 69.055 117.517 68.4361 116.167 68.1745C116.047 68.1512 116.047 67.8488 116.167 67.8255C117.517 67.5639 119.699 66.945 120.839 65.5692C122.022 64.1424 122.637 61.2345 122.877 59.8155Z" fill="white"/>
</svg>
