<svg width="279" height="537" viewBox="0 0 279 537" fill="none" xmlns="http://www.w3.org/2000/svg">
<path d="M4 0.5C4 0.5 18 75 107.5 55" stroke="black" stroke-dasharray="5 5"/>
<path d="M158.5 73.4998C158.5 73.4998 221.14 98.7214 241.5 73.4998C257.935 53.1403 275.5 -4.53519 241.5 6.49978C207.5 17.5347 272 155.5 272 155.5" stroke="black" stroke-dasharray="5 5"/>
<path d="M274.5 208C274.5 208 268 263 253.5 268C239 273 308 291.5 261 308.5C214 325.5 158 325.5 158 325.5" stroke="black" stroke-dasharray="5 5"/>
<path d="M108 334.5C108 334.5 84.3222 371.37 60.4999 373C36.913 374.614 -20.5001 357.5 8.49993 342C37.5 326.5 8.49993 433.5 8.49993 433.5" stroke="black" stroke-dasharray="5 5"/>
<path d="M1 465.5C1 465.5 26 532 106 536" stroke="black" stroke-dasharray="5 5"/>
</svg>
