<svg width="439" height="599" viewBox="0 0 439 599" fill="none" xmlns="http://www.w3.org/2000/svg">
<path d="M152.732 127.756C152.732 127.756 127.725 111.163 125.869 94.6022C123.433 72.8791 123.478 45.0519 160.792 50.8593C186.511 54.8621 195.596 88.6498 198.759 109.262C197.454 88.6965 198.466 55.1477 218.487 52.1663C237.426 49.3462 253.689 58.1729 261.534 75.6398C272.198 99.3822 227.11 132.708 227.11 132.708L152.732 127.756Z" fill="#EB7462"/>
<path d="M96.8896 136.367C42.4472 159.921 0 241.527 0 241.527V599.5H439V264.276C439 264.276 392.866 184.904 331.622 158.258C257.203 125.879 171.394 104.134 96.8896 136.367Z" fill="#EB7462"/>
<ellipse cx="124.5" cy="307" rx="38.5" ry="47" fill="black"/>
<ellipse cx="238.5" cy="307" rx="38.5" ry="47" fill="black"/>
<path d="M138.012 286.479C138.19 285.675 139.81 285.675 139.988 286.479C140.953 290.84 142.69 296.734 145.482 299.978C147.713 302.569 151.272 304.231 154.601 305.283C155.421 305.543 155.421 308.457 154.601 308.717C151.272 309.769 147.713 311.431 145.482 314.022C142.69 317.266 140.953 323.16 139.988 327.521C139.81 328.325 138.19 328.325 138.012 327.521C137.047 323.16 135.31 317.266 132.518 314.022C130.287 311.431 126.728 309.769 123.399 308.717C122.579 308.457 122.579 305.543 123.399 305.283C126.728 304.231 130.287 302.569 132.518 299.978C135.31 296.734 137.047 290.84 138.012 286.479Z" fill="white"/>
<path d="M252.012 286.479C252.19 285.675 253.81 285.675 253.988 286.479C254.953 290.84 256.69 296.734 259.482 299.978C261.713 302.569 265.272 304.231 268.601 305.283C269.421 305.543 269.421 308.457 268.601 308.717C265.272 309.769 261.713 311.431 259.482 314.022C256.69 317.266 254.953 323.16 253.988 327.521C253.81 328.325 252.19 328.325 252.012 327.521C251.047 323.16 249.31 317.266 246.518 314.022C244.287 311.431 240.728 309.769 237.399 308.717C236.579 308.457 236.579 305.543 237.399 305.283C240.728 304.231 244.287 302.569 246.518 299.978C249.31 296.734 251.047 290.84 252.012 286.479Z" fill="white"/>
</svg>
