<svg width="258" height="123" viewBox="0 0 258 123" fill="none" xmlns="http://www.w3.org/2000/svg">
<path d="M15.8062 106L1.68688 55.0909H9.76571L19.684 94.5156H20.1563L30.4724 55.0909H38.4767L48.7927 94.5405H49.265L59.1585 55.0909H67.2622L53.118 106H45.3872L34.6734 67.8679H34.2757L23.5619 106H15.8062ZM150.959 80.5455C150.959 85.9811 149.965 90.6544 147.976 94.5653C145.987 98.4598 143.261 101.459 139.798 103.564C136.351 105.652 132.431 106.696 128.04 106.696C123.632 106.696 119.696 105.652 116.232 103.564C112.785 101.459 110.068 98.4515 108.079 94.5405C106.09 90.6295 105.096 85.9645 105.096 80.5455C105.096 75.1098 106.09 70.4448 108.079 66.5504C110.068 62.6394 112.785 59.6399 116.232 57.5518C119.696 55.4472 123.632 54.3949 128.04 54.3949C132.431 54.3949 136.351 55.4472 139.798 57.5518C143.261 59.6399 145.987 62.6394 147.976 66.5504C149.965 70.4448 150.959 75.1098 150.959 80.5455ZM143.352 80.5455C143.352 76.4025 142.681 72.9141 141.339 70.0803C140.013 67.2299 138.19 65.0755 135.87 63.6172C133.567 62.1423 130.957 61.4048 128.04 61.4048C125.107 61.4048 122.488 62.1423 120.185 63.6172C117.881 65.0755 116.058 67.2299 114.716 70.0803C113.39 72.9141 112.727 76.4025 112.727 80.5455C112.727 84.6884 113.39 88.1851 114.716 91.0355C116.058 93.8693 117.881 96.0237 120.185 97.4986C122.488 98.9569 125.107 99.6861 128.04 99.6861C130.957 99.6861 133.567 98.9569 135.87 97.4986C138.19 96.0237 140.013 93.8693 141.339 91.0355C142.681 88.1851 143.352 84.6884 143.352 80.5455ZM204.888 106L190.769 55.0909H198.848L208.766 94.5156H209.238L219.554 55.0909H227.559L237.875 94.5405H238.347L248.241 55.0909H256.344L242.2 106H234.469L223.755 67.8679H223.358L212.644 106H204.888Z" fill="black"/>
<circle cx="129.5" cy="80.5" r="38.5" fill="#EB7462"/>
<path d="M114.191 47.7647C114.191 47.7647 104.842 41.5607 104.148 35.3693C103.237 27.2476 103.254 16.8437 117.205 19.0149C126.821 20.5115 130.217 33.1438 131.4 40.8501C130.912 33.1613 131.29 20.6183 138.776 19.5036C145.856 18.4492 151.937 21.7493 154.87 28.2797C158.857 37.1564 142 49.6161 142 49.6161L114.191 47.7647Z" fill="#EB7462"/>
<ellipse cx="118" cy="67.5" rx="4" ry="5.5" fill="black"/>
<ellipse cx="140" cy="67.5" rx="4" ry="5.5" fill="black"/>
<ellipse cx="129" cy="86.5" rx="4" ry="5.5" fill="black"/>
</svg>
